<svg xmlns="http://www.w3.org/2000/svg" width="25" height="21" fill="none"><path fill="#fff" fill-rule="evenodd" d="M9.731 18.883c0-1.047-.822-1.888-1.846-1.888s-1.846.84-1.846 1.888.822 1.889 1.846 1.889 1.846-.841 1.846-1.889Zm12.923 0c0-1.047-.823-1.888-1.846-1.888-1.024 0-1.847.84-1.847 1.888s.823 1.889 1.847 1.889c1.023 0 1.846-.841 1.846-1.889ZM24.5 2.833a.94.94 0 0 0-.923-.945H6.255C6.111 1.18 6.097 0 5.115 0H1.425A.94.94 0 0 0 .5.944a.94.94 0 0 0 .923.944h2.942L6.919 14.03c-.202.427-.88 1.564-.88 2.02a.94.94 0 0 0 .923.945h14.769a.94.94 0 0 0 .923-.944.94.94 0 0 0-.923-.944H8.46c.145-.295.347-.605.347-.944 0-.34-.13-.708-.187-1.033l15.057-1.8a.948.948 0 0 0 .822-.944V2.833Z" clip-rule="evenodd"/></svg>